<svg width="600" height="800" viewBox="0 0 600 800" fill="none" xmlns="http://www.w3.org/2000/svg">
<rect width="600" height="800" fill="#27363F"/>
<path d="M299.621 744.752L299.55 744.742L299.479 744.752L169.714 763.5H39.5V90.3355V36.5H104.375H169.718L299.487 53.3254L299.55 53.3337L299.614 53.3256L431.282 36.5H561.5V763.5H431.285L299.621 744.752Z" stroke="#FFDC01"/>
<path fill-rule="evenodd" clip-rule="evenodd" d="M534.17 23.5293V22L66.8298 22V23.5293H66.1086C66.1086 47.6005 47.7037 67.1141 25 67.1141V733.886C47.7037 733.886 66.1086 753.399 66.1086 777.471L66.8298 777.471V779L534.17 779V777.471H534.891C534.891 753.399 553.296 733.886 576 733.886V67.1141C553.296 67.1141 534.891 47.6005 534.891 23.5293L534.17 23.5293ZM67.551 23.5293C67.551 47.9334 49.2749 67.8116 26.4424 68.618L26.4424 732.382C49.2749 733.188 67.551 753.067 67.551 777.471H533.449C533.449 753.067 551.725 733.188 574.558 732.382L574.558 68.618C551.725 67.8117 533.449 47.9334 533.449 23.5293L67.551 23.5293Z" fill="#FFDC01"/>
</svg>
